<mxfile host="app.diagrams.net" agent="Mozilla/5.0 (Windows NT 10.0; Win64; x64) AppleWebKit/537.36 (KHTML, like Gecko) Chrome/129.0.0.0 Safari/537.36" version="24.8.6" pages="6">
  <diagram name="Trang-1" id="oDWqWKxT_PK0XZUVC8J7">
    <mxGraphModel grid="1" page="1" gridSize="10" guides="1" tooltips="1" connect="1" arrows="1" fold="1" pageScale="1" pageWidth="827" pageHeight="1169" math="0" shadow="0">
      <root>
        <mxCell id="0" />
        <mxCell id="1" parent="0" />
        <mxCell id="Kg8_6u9AEITc99ov_CIF-1" value="&lt;span class=&quot;hljs-keyword&quot;&gt;Start&lt;/span&gt;" style="ellipse;whiteSpace=wrap;html=1;" vertex="1" parent="1">
          <mxGeometry x="320" y="60" width="120" height="80" as="geometry" />
        </mxCell>
        <mxCell id="Kg8_6u9AEITc99ov_CIF-4" value="a &amp;lt; b ?" style="rounded=0;whiteSpace=wrap;html=1;" vertex="1" parent="1">
          <mxGeometry x="320" y="310" width="120" height="60" as="geometry" />
        </mxCell>
        <mxCell id="Kg8_6u9AEITc99ov_CIF-9" value="" style="endArrow=classic;html=1;rounded=0;" edge="1" parent="1" source="Kg8_6u9AEITc99ov_CIF-1">
          <mxGeometry width="50" height="50" relative="1" as="geometry">
            <mxPoint x="390" y="410" as="sourcePoint" />
            <mxPoint x="380" y="190" as="targetPoint" />
            <Array as="points" />
          </mxGeometry>
        </mxCell>
        <mxCell id="Kg8_6u9AEITc99ov_CIF-10" value="" style="endArrow=classic;html=1;rounded=0;" edge="1" parent="1" target="Kg8_6u9AEITc99ov_CIF-4">
          <mxGeometry width="50" height="50" relative="1" as="geometry">
            <mxPoint x="380" y="250" as="sourcePoint" />
            <mxPoint x="440" y="360" as="targetPoint" />
          </mxGeometry>
        </mxCell>
        <mxCell id="Kg8_6u9AEITc99ov_CIF-11" value="" style="endArrow=classic;html=1;rounded=0;exitX=0.5;exitY=1;exitDx=0;exitDy=0;entryX=0.5;entryY=0;entryDx=0;entryDy=0;" edge="1" parent="1" source="Kg8_6u9AEITc99ov_CIF-4" target="Kg8_6u9AEITc99ov_CIF-23">
          <mxGeometry width="50" height="50" relative="1" as="geometry">
            <mxPoint x="390" y="410" as="sourcePoint" />
            <mxPoint x="324" y="426" as="targetPoint" />
          </mxGeometry>
        </mxCell>
        <mxCell id="Kg8_6u9AEITc99ov_CIF-25" value="Yes" style="edgeLabel;html=1;align=center;verticalAlign=middle;resizable=0;points=[];" vertex="1" connectable="0" parent="Kg8_6u9AEITc99ov_CIF-11">
          <mxGeometry x="0.0375" y="-1" relative="1" as="geometry">
            <mxPoint as="offset" />
          </mxGeometry>
        </mxCell>
        <mxCell id="Kg8_6u9AEITc99ov_CIF-12" value="" style="endArrow=classic;html=1;rounded=0;exitX=0.5;exitY=1;exitDx=0;exitDy=0;entryX=0.558;entryY=-0.017;entryDx=0;entryDy=0;entryPerimeter=0;" edge="1" parent="1" source="Kg8_6u9AEITc99ov_CIF-4" target="Kg8_6u9AEITc99ov_CIF-24">
          <mxGeometry width="50" height="50" relative="1" as="geometry">
            <mxPoint x="390" y="410" as="sourcePoint" />
            <mxPoint x="436" y="426" as="targetPoint" />
            <Array as="points" />
          </mxGeometry>
        </mxCell>
        <mxCell id="Kg8_6u9AEITc99ov_CIF-26" value="No" style="edgeLabel;html=1;align=center;verticalAlign=middle;resizable=0;points=[];" vertex="1" connectable="0" parent="Kg8_6u9AEITc99ov_CIF-12">
          <mxGeometry x="0.0731" y="1" relative="1" as="geometry">
            <mxPoint as="offset" />
          </mxGeometry>
        </mxCell>
        <mxCell id="Kg8_6u9AEITc99ov_CIF-15" value="Stop" style="ellipse;whiteSpace=wrap;html=1;" vertex="1" parent="1">
          <mxGeometry x="320" y="545" width="120" height="80" as="geometry" />
        </mxCell>
        <mxCell id="Kg8_6u9AEITc99ov_CIF-18" value="" style="endArrow=classic;html=1;rounded=0;" edge="1" parent="1" source="Kg8_6u9AEITc99ov_CIF-23" target="Kg8_6u9AEITc99ov_CIF-15">
          <mxGeometry width="50" height="50" relative="1" as="geometry">
            <mxPoint x="308.9473684210527" y="591.0526315789473" as="sourcePoint" />
            <mxPoint x="440" y="360" as="targetPoint" />
          </mxGeometry>
        </mxCell>
        <mxCell id="Kg8_6u9AEITc99ov_CIF-19" value="" style="endArrow=classic;html=1;rounded=0;entryX=0.742;entryY=0.075;entryDx=0;entryDy=0;entryPerimeter=0;exitX=0.4;exitY=0.983;exitDx=0;exitDy=0;exitPerimeter=0;" edge="1" parent="1" source="Kg8_6u9AEITc99ov_CIF-24" target="Kg8_6u9AEITc99ov_CIF-15">
          <mxGeometry width="50" height="50" relative="1" as="geometry">
            <mxPoint x="450.79395085066153" y="590.7939508506615" as="sourcePoint" />
            <mxPoint x="440" y="360" as="targetPoint" />
          </mxGeometry>
        </mxCell>
        <mxCell id="Kg8_6u9AEITc99ov_CIF-23" value="a nhỏ hơn" style="shape=parallelogram;perimeter=parallelogramPerimeter;whiteSpace=wrap;html=1;fixedSize=1;" vertex="1" parent="1">
          <mxGeometry x="240" y="450" width="120" height="60" as="geometry" />
        </mxCell>
        <mxCell id="Kg8_6u9AEITc99ov_CIF-24" value="b nhỏ hơn" style="shape=parallelogram;perimeter=parallelogramPerimeter;whiteSpace=wrap;html=1;fixedSize=1;" vertex="1" parent="1">
          <mxGeometry x="400" y="450" width="120" height="60" as="geometry" />
        </mxCell>
        <mxCell id="Kg8_6u9AEITc99ov_CIF-27" value="nhập a,b" style="shape=parallelogram;perimeter=parallelogramPerimeter;whiteSpace=wrap;html=1;fixedSize=1;" vertex="1" parent="1">
          <mxGeometry x="320" y="190" width="120" height="60" as="geometry" />
        </mxCell>
      </root>
    </mxGraphModel>
  </diagram>
  <diagram id="DW1Mipt7sfJpcJcAwIu6" name="Trang-2">
    <mxGraphModel grid="1" page="1" gridSize="10" guides="1" tooltips="1" connect="1" arrows="1" fold="1" pageScale="1" pageWidth="827" pageHeight="1169" math="0" shadow="0">
      <root>
        <mxCell id="0" />
        <mxCell id="1" parent="0" />
        <mxCell id="GqpwdNBmgOZXchgD0XC1-1" value="Start" style="ellipse;whiteSpace=wrap;html=1;" vertex="1" parent="1">
          <mxGeometry x="320" y="40" width="120" height="80" as="geometry" />
        </mxCell>
        <mxCell id="GqpwdNBmgOZXchgD0XC1-2" value="" style="endArrow=classic;html=1;rounded=0;" edge="1" parent="1" source="GqpwdNBmgOZXchgD0XC1-3">
          <mxGeometry width="50" height="50" relative="1" as="geometry">
            <mxPoint x="390" y="410" as="sourcePoint" />
            <mxPoint x="380" y="200" as="targetPoint" />
          </mxGeometry>
        </mxCell>
        <mxCell id="GqpwdNBmgOZXchgD0XC1-4" value="" style="endArrow=classic;html=1;rounded=0;" edge="1" parent="1" source="GqpwdNBmgOZXchgD0XC1-1" target="GqpwdNBmgOZXchgD0XC1-3">
          <mxGeometry width="50" height="50" relative="1" as="geometry">
            <mxPoint x="380" y="120" as="sourcePoint" />
            <mxPoint x="380" y="200" as="targetPoint" />
          </mxGeometry>
        </mxCell>
        <mxCell id="GqpwdNBmgOZXchgD0XC1-3" value="nhập a,b" style="shape=parallelogram;perimeter=parallelogramPerimeter;whiteSpace=wrap;html=1;fixedSize=1;" vertex="1" parent="1">
          <mxGeometry x="320" y="160" width="120" height="60" as="geometry" />
        </mxCell>
        <mxCell id="GqpwdNBmgOZXchgD0XC1-6" value="Tính n/2" style="rounded=0;whiteSpace=wrap;html=1;" vertex="1" parent="1">
          <mxGeometry x="320" y="260" width="120" height="60" as="geometry" />
        </mxCell>
        <mxCell id="GqpwdNBmgOZXchgD0XC1-7" value="" style="endArrow=classic;html=1;rounded=0;exitX=0.5;exitY=1;exitDx=0;exitDy=0;exitPerimeter=0;" edge="1" parent="1" source="GqpwdNBmgOZXchgD0XC1-3" target="GqpwdNBmgOZXchgD0XC1-6">
          <mxGeometry width="50" height="50" relative="1" as="geometry">
            <mxPoint x="390" y="410" as="sourcePoint" />
            <mxPoint x="440" y="360" as="targetPoint" />
          </mxGeometry>
        </mxCell>
        <mxCell id="GqpwdNBmgOZXchgD0XC1-8" value="n/2==0" style="rhombus;whiteSpace=wrap;html=1;" vertex="1" parent="1">
          <mxGeometry x="300" y="360" width="160" height="80" as="geometry" />
        </mxCell>
        <mxCell id="GqpwdNBmgOZXchgD0XC1-9" value="" style="endArrow=classic;html=1;rounded=0;" edge="1" parent="1" target="GqpwdNBmgOZXchgD0XC1-8">
          <mxGeometry width="50" height="50" relative="1" as="geometry">
            <mxPoint x="380" y="320" as="sourcePoint" />
            <mxPoint x="440" y="360" as="targetPoint" />
          </mxGeometry>
        </mxCell>
        <mxCell id="GqpwdNBmgOZXchgD0XC1-12" value="" style="edgeStyle=elbowEdgeStyle;elbow=vertical;endArrow=classic;html=1;curved=0;rounded=0;endSize=8;startSize=8;exitX=0.5;exitY=1;exitDx=0;exitDy=0;entryX=0.5;entryY=0;entryDx=0;entryDy=0;" edge="1" parent="1" source="GqpwdNBmgOZXchgD0XC1-8" target="GqpwdNBmgOZXchgD0XC1-13">
          <mxGeometry width="50" height="50" relative="1" as="geometry">
            <mxPoint x="410" y="430" as="sourcePoint" />
            <mxPoint x="480" y="490" as="targetPoint" />
            <Array as="points">
              <mxPoint x="480" y="440" />
            </Array>
          </mxGeometry>
        </mxCell>
        <mxCell id="GqpwdNBmgOZXchgD0XC1-20" value="sai" style="edgeLabel;html=1;align=center;verticalAlign=middle;resizable=0;points=[];" connectable="0" vertex="1" parent="GqpwdNBmgOZXchgD0XC1-12">
          <mxGeometry x="-0.0667" relative="1" as="geometry">
            <mxPoint as="offset" />
          </mxGeometry>
        </mxCell>
        <mxCell id="GqpwdNBmgOZXchgD0XC1-13" value="n là số lẻ" style="shape=parallelogram;perimeter=parallelogramPerimeter;whiteSpace=wrap;html=1;fixedSize=1;" vertex="1" parent="1">
          <mxGeometry x="400" y="480" width="120" height="60" as="geometry" />
        </mxCell>
        <mxCell id="GqpwdNBmgOZXchgD0XC1-14" value="N là số chẵn&amp;nbsp;" style="shape=parallelogram;perimeter=parallelogramPerimeter;whiteSpace=wrap;html=1;fixedSize=1;" vertex="1" parent="1">
          <mxGeometry x="220" y="480" width="120" height="60" as="geometry" />
        </mxCell>
        <mxCell id="GqpwdNBmgOZXchgD0XC1-16" value="" style="edgeStyle=segmentEdgeStyle;endArrow=classic;html=1;curved=0;rounded=0;endSize=8;startSize=8;entryX=0.567;entryY=-0.033;entryDx=0;entryDy=0;entryPerimeter=0;exitX=0.5;exitY=1;exitDx=0;exitDy=0;" edge="1" parent="1" source="GqpwdNBmgOZXchgD0XC1-8" target="GqpwdNBmgOZXchgD0XC1-14">
          <mxGeometry width="50" height="50" relative="1" as="geometry">
            <mxPoint x="350" y="430" as="sourcePoint" />
            <mxPoint x="340" y="550" as="targetPoint" />
          </mxGeometry>
        </mxCell>
        <mxCell id="GqpwdNBmgOZXchgD0XC1-19" value="đúng" style="edgeLabel;html=1;align=center;verticalAlign=middle;resizable=0;points=[];" connectable="0" vertex="1" parent="GqpwdNBmgOZXchgD0XC1-16">
          <mxGeometry x="0.0614" y="3" relative="1" as="geometry">
            <mxPoint as="offset" />
          </mxGeometry>
        </mxCell>
        <mxCell id="GqpwdNBmgOZXchgD0XC1-21" value="kết thúc" style="ellipse;whiteSpace=wrap;html=1;" vertex="1" parent="1">
          <mxGeometry x="320" y="600" width="120" height="80" as="geometry" />
        </mxCell>
        <mxCell id="GqpwdNBmgOZXchgD0XC1-22" value="" style="endArrow=classic;html=1;rounded=0;" edge="1" parent="1" source="GqpwdNBmgOZXchgD0XC1-14" target="GqpwdNBmgOZXchgD0XC1-21">
          <mxGeometry width="50" height="50" relative="1" as="geometry">
            <mxPoint x="390" y="410" as="sourcePoint" />
            <mxPoint x="440" y="360" as="targetPoint" />
          </mxGeometry>
        </mxCell>
        <mxCell id="GqpwdNBmgOZXchgD0XC1-23" value="" style="endArrow=classic;html=1;rounded=0;entryX=0.667;entryY=0;entryDx=0;entryDy=0;entryPerimeter=0;" edge="1" parent="1" source="GqpwdNBmgOZXchgD0XC1-13" target="GqpwdNBmgOZXchgD0XC1-21">
          <mxGeometry width="50" height="50" relative="1" as="geometry">
            <mxPoint x="390" y="410" as="sourcePoint" />
            <mxPoint x="440" y="360" as="targetPoint" />
          </mxGeometry>
        </mxCell>
      </root>
    </mxGraphModel>
  </diagram>
  <diagram id="8nWfGU6pQpc94EsxPAzh" name="Trang-3">
    <mxGraphModel grid="1" page="1" gridSize="10" guides="1" tooltips="1" connect="1" arrows="1" fold="1" pageScale="1" pageWidth="827" pageHeight="1169" math="0" shadow="0">
      <root>
        <mxCell id="0" />
        <mxCell id="1" parent="0" />
        <mxCell id="Myc6UDIl79Mtn2mwyFqo-1" value="Start" style="ellipse;whiteSpace=wrap;html=1;" vertex="1" parent="1">
          <mxGeometry x="340" y="30" width="120" height="80" as="geometry" />
        </mxCell>
        <mxCell id="Myc6UDIl79Mtn2mwyFqo-2" value="nhập a,b" style="shape=parallelogram;perimeter=parallelogramPerimeter;whiteSpace=wrap;html=1;fixedSize=1;" vertex="1" parent="1">
          <mxGeometry x="340" y="150" width="120" height="60" as="geometry" />
        </mxCell>
        <mxCell id="Myc6UDIl79Mtn2mwyFqo-3" value="tính tổng= a+b" style="rounded=0;whiteSpace=wrap;html=1;" vertex="1" parent="1">
          <mxGeometry x="340" y="260" width="120" height="60" as="geometry" />
        </mxCell>
        <mxCell id="Myc6UDIl79Mtn2mwyFqo-4" value="hiển thị tổng" style="shape=parallelogram;perimeter=parallelogramPerimeter;whiteSpace=wrap;html=1;fixedSize=1;" vertex="1" parent="1">
          <mxGeometry x="340" y="380" width="120" height="60" as="geometry" />
        </mxCell>
        <mxCell id="Myc6UDIl79Mtn2mwyFqo-5" value="end" style="ellipse;whiteSpace=wrap;html=1;" vertex="1" parent="1">
          <mxGeometry x="340" y="480" width="120" height="80" as="geometry" />
        </mxCell>
        <mxCell id="Myc6UDIl79Mtn2mwyFqo-6" value="" style="endArrow=classic;html=1;rounded=0;" edge="1" parent="1" source="Myc6UDIl79Mtn2mwyFqo-3" target="Myc6UDIl79Mtn2mwyFqo-4">
          <mxGeometry width="50" height="50" relative="1" as="geometry">
            <mxPoint x="390" y="410" as="sourcePoint" />
            <mxPoint x="440" y="360" as="targetPoint" />
          </mxGeometry>
        </mxCell>
        <mxCell id="Myc6UDIl79Mtn2mwyFqo-7" value="" style="endArrow=classic;html=1;rounded=0;" edge="1" parent="1" source="Myc6UDIl79Mtn2mwyFqo-2" target="Myc6UDIl79Mtn2mwyFqo-3">
          <mxGeometry width="50" height="50" relative="1" as="geometry">
            <mxPoint x="390" y="410" as="sourcePoint" />
            <mxPoint x="440" y="360" as="targetPoint" />
          </mxGeometry>
        </mxCell>
        <mxCell id="Myc6UDIl79Mtn2mwyFqo-8" value="" style="endArrow=classic;html=1;rounded=0;" edge="1" parent="1" source="Myc6UDIl79Mtn2mwyFqo-1" target="Myc6UDIl79Mtn2mwyFqo-2">
          <mxGeometry width="50" height="50" relative="1" as="geometry">
            <mxPoint x="390" y="410" as="sourcePoint" />
            <mxPoint x="440" y="360" as="targetPoint" />
          </mxGeometry>
        </mxCell>
        <mxCell id="Myc6UDIl79Mtn2mwyFqo-9" value="" style="endArrow=classic;html=1;rounded=0;" edge="1" parent="1" source="Myc6UDIl79Mtn2mwyFqo-4" target="Myc6UDIl79Mtn2mwyFqo-5">
          <mxGeometry width="50" height="50" relative="1" as="geometry">
            <mxPoint x="390" y="410" as="sourcePoint" />
            <mxPoint x="440" y="360" as="targetPoint" />
          </mxGeometry>
        </mxCell>
      </root>
    </mxGraphModel>
  </diagram>
  <diagram id="6arI8rlCo7p2ghnloet2" name="Trang-4">
    <mxGraphModel grid="1" page="1" gridSize="10" guides="1" tooltips="1" connect="1" arrows="1" fold="1" pageScale="1" pageWidth="827" pageHeight="1169" math="0" shadow="0">
      <root>
        <mxCell id="0" />
        <mxCell id="1" parent="0" />
        <mxCell id="Mudsy8K1g291CKAeShyk-1" value="Start&amp;nbsp;" style="ellipse;whiteSpace=wrap;html=1;" vertex="1" parent="1">
          <mxGeometry x="340" y="40" width="120" height="80" as="geometry" />
        </mxCell>
        <mxCell id="Mudsy8K1g291CKAeShyk-2" value="nhập điểm số n" style="shape=parallelogram;perimeter=parallelogramPerimeter;whiteSpace=wrap;html=1;fixedSize=1;" vertex="1" parent="1">
          <mxGeometry x="340" y="200" width="120" height="60" as="geometry" />
        </mxCell>
        <mxCell id="Mudsy8K1g291CKAeShyk-3" value="nếu n&amp;gt;5" style="rhombus;whiteSpace=wrap;html=1;" vertex="1" parent="1">
          <mxGeometry x="340" y="310" width="120" height="80" as="geometry" />
        </mxCell>
        <mxCell id="Mudsy8K1g291CKAeShyk-4" value="không đạt" style="shape=parallelogram;perimeter=parallelogramPerimeter;whiteSpace=wrap;html=1;fixedSize=1;" vertex="1" parent="1">
          <mxGeometry x="420" y="440" width="120" height="60" as="geometry" />
        </mxCell>
        <mxCell id="Mudsy8K1g291CKAeShyk-5" value="đạt" style="shape=parallelogram;perimeter=parallelogramPerimeter;whiteSpace=wrap;html=1;fixedSize=1;" vertex="1" parent="1">
          <mxGeometry x="240" y="440" width="120" height="60" as="geometry" />
        </mxCell>
        <mxCell id="Mudsy8K1g291CKAeShyk-6" value="end" style="ellipse;whiteSpace=wrap;html=1;" vertex="1" parent="1">
          <mxGeometry x="340" y="570" width="120" height="80" as="geometry" />
        </mxCell>
        <mxCell id="Mudsy8K1g291CKAeShyk-7" value="" style="endArrow=classic;html=1;rounded=0;" edge="1" parent="1" source="Mudsy8K1g291CKAeShyk-1" target="Mudsy8K1g291CKAeShyk-2">
          <mxGeometry width="50" height="50" relative="1" as="geometry">
            <mxPoint x="390" y="410" as="sourcePoint" />
            <mxPoint x="440" y="360" as="targetPoint" />
          </mxGeometry>
        </mxCell>
        <mxCell id="Mudsy8K1g291CKAeShyk-8" value="" style="endArrow=classic;html=1;rounded=0;" edge="1" parent="1" source="Mudsy8K1g291CKAeShyk-2" target="Mudsy8K1g291CKAeShyk-3">
          <mxGeometry width="50" height="50" relative="1" as="geometry">
            <mxPoint x="390" y="410" as="sourcePoint" />
            <mxPoint x="440" y="360" as="targetPoint" />
          </mxGeometry>
        </mxCell>
        <mxCell id="Mudsy8K1g291CKAeShyk-9" value="" style="endArrow=classic;html=1;rounded=0;exitX=0;exitY=1;exitDx=0;exitDy=0;" edge="1" parent="1" source="Mudsy8K1g291CKAeShyk-3">
          <mxGeometry width="50" height="50" relative="1" as="geometry">
            <mxPoint x="370" y="367" as="sourcePoint" />
            <mxPoint x="310" y="440" as="targetPoint" />
            <Array as="points">
              <mxPoint x="370" y="410" />
              <mxPoint x="340" y="410" />
            </Array>
          </mxGeometry>
        </mxCell>
        <mxCell id="Mudsy8K1g291CKAeShyk-10" value="" style="endArrow=classic;html=1;rounded=0;entryX=0.5;entryY=0;entryDx=0;entryDy=0;" edge="1" parent="1" target="Mudsy8K1g291CKAeShyk-4">
          <mxGeometry width="50" height="50" relative="1" as="geometry">
            <mxPoint x="420" y="380" as="sourcePoint" />
            <mxPoint x="440" y="360" as="targetPoint" />
            <Array as="points">
              <mxPoint x="420" y="410" />
              <mxPoint x="480" y="410" />
            </Array>
          </mxGeometry>
        </mxCell>
        <mxCell id="Mudsy8K1g291CKAeShyk-11" value="" style="endArrow=classic;html=1;rounded=0;exitX=0.5;exitY=1;exitDx=0;exitDy=0;" edge="1" parent="1" source="Mudsy8K1g291CKAeShyk-5" target="Mudsy8K1g291CKAeShyk-6">
          <mxGeometry width="50" height="50" relative="1" as="geometry">
            <mxPoint x="390" y="410" as="sourcePoint" />
            <mxPoint x="440" y="360" as="targetPoint" />
          </mxGeometry>
        </mxCell>
        <mxCell id="Mudsy8K1g291CKAeShyk-12" value="" style="endArrow=classic;html=1;rounded=0;exitX=0.5;exitY=1;exitDx=0;exitDy=0;" edge="1" parent="1" source="Mudsy8K1g291CKAeShyk-4" target="Mudsy8K1g291CKAeShyk-6">
          <mxGeometry width="50" height="50" relative="1" as="geometry">
            <mxPoint x="390" y="410" as="sourcePoint" />
            <mxPoint x="440" y="360" as="targetPoint" />
          </mxGeometry>
        </mxCell>
      </root>
    </mxGraphModel>
  </diagram>
  <diagram id="UYfymKm1pGeEAWCOvF4N" name="Trang-5">
    <mxGraphModel grid="1" page="1" gridSize="10" guides="1" tooltips="1" connect="1" arrows="1" fold="1" pageScale="1" pageWidth="827" pageHeight="1169" math="0" shadow="0">
      <root>
        <mxCell id="0" />
        <mxCell id="1" parent="0" />
        <mxCell id="SL25e_AclgKspItbxeiN-1" value="Start" style="ellipse;whiteSpace=wrap;html=1;" vertex="1" parent="1">
          <mxGeometry x="120" y="40" width="120" height="80" as="geometry" />
        </mxCell>
        <mxCell id="SL25e_AclgKspItbxeiN-2" value="nhập điểm số (n)" style="shape=parallelogram;perimeter=parallelogramPerimeter;whiteSpace=wrap;html=1;fixedSize=1;" vertex="1" parent="1">
          <mxGeometry x="120" y="160" width="120" height="60" as="geometry" />
        </mxCell>
        <mxCell id="SL25e_AclgKspItbxeiN-3" value="&lt;span style=&quot;font-family: Roboto, sans-serif; font-size: 16px; text-align: left; white-space-collapse: preserve; background-color: rgb(255, 255, 255);&quot;&gt;n &amp;lt; 4&lt;/span&gt;" style="rhombus;whiteSpace=wrap;html=1;" vertex="1" parent="1">
          <mxGeometry x="115" y="260" width="130" height="80" as="geometry" />
        </mxCell>
        <mxCell id="SL25e_AclgKspItbxeiN-4" value="chưa đạt" style="shape=parallelogram;perimeter=parallelogramPerimeter;whiteSpace=wrap;html=1;fixedSize=1;" vertex="1" parent="1">
          <mxGeometry x="330" y="270" width="120" height="60" as="geometry" />
        </mxCell>
        <mxCell id="SL25e_AclgKspItbxeiN-5" value="4 &amp;lt;= n &amp;lt;= 6" style="rhombus;whiteSpace=wrap;html=1;" vertex="1" parent="1">
          <mxGeometry x="110" y="380" width="135" height="80" as="geometry" />
        </mxCell>
        <mxCell id="SL25e_AclgKspItbxeiN-6" value="trung bình" style="shape=parallelogram;perimeter=parallelogramPerimeter;whiteSpace=wrap;html=1;fixedSize=1;" vertex="1" parent="1">
          <mxGeometry x="330" y="390" width="120" height="60" as="geometry" />
        </mxCell>
        <mxCell id="SL25e_AclgKspItbxeiN-8" value="&lt;span style=&quot;font-family: Roboto, sans-serif; font-size: 16px; text-align: left; white-space-collapse: preserve; background-color: rgb(255, 255, 255);&quot;&gt;6 &amp;lt; n&amp;lt;= 8&lt;/span&gt;" style="rhombus;whiteSpace=wrap;html=1;" vertex="1" parent="1">
          <mxGeometry x="112.5" y="495" width="135" height="80" as="geometry" />
        </mxCell>
        <mxCell id="SL25e_AclgKspItbxeiN-9" value="&lt;span style=&quot;font-family: Roboto, sans-serif; font-size: 16px; text-align: left; white-space-collapse: preserve; background-color: rgb(255, 255, 255);&quot;&gt;8 &amp;lt; n&amp;lt;= 9&lt;/span&gt;" style="rhombus;whiteSpace=wrap;html=1;" vertex="1" parent="1">
          <mxGeometry x="110" y="630" width="135" height="80" as="geometry" />
        </mxCell>
        <mxCell id="SL25e_AclgKspItbxeiN-10" value="&lt;span style=&quot;font-family: Roboto, sans-serif; font-size: 16px; text-align: left; white-space-collapse: preserve; background-color: rgb(255, 255, 255);&quot;&gt;9 &amp;lt; n&amp;lt;=10&lt;/span&gt;" style="rhombus;whiteSpace=wrap;html=1;" vertex="1" parent="1">
          <mxGeometry x="110" y="750" width="137.5" height="80" as="geometry" />
        </mxCell>
        <mxCell id="SL25e_AclgKspItbxeiN-18" value="" style="edgeStyle=orthogonalEdgeStyle;rounded=0;orthogonalLoop=1;jettySize=auto;html=1;entryX=0;entryY=0.5;entryDx=0;entryDy=0;" edge="1" parent="1" source="SL25e_AclgKspItbxeiN-9" target="SL25e_AclgKspItbxeiN-11">
          <mxGeometry relative="1" as="geometry">
            <mxPoint x="260" y="620" as="targetPoint" />
          </mxGeometry>
        </mxCell>
        <mxCell id="SL25e_AclgKspItbxeiN-37" value="đúng" style="edgeLabel;html=1;align=center;verticalAlign=middle;resizable=0;points=[];" connectable="0" vertex="1" parent="SL25e_AclgKspItbxeiN-18">
          <mxGeometry x="-0.1579" relative="1" as="geometry">
            <mxPoint as="offset" />
          </mxGeometry>
        </mxCell>
        <mxCell id="SL25e_AclgKspItbxeiN-11" value="giỏi" style="shape=parallelogram;perimeter=parallelogramPerimeter;whiteSpace=wrap;html=1;fixedSize=1;" vertex="1" parent="1">
          <mxGeometry x="330" y="640" width="120" height="60" as="geometry" />
        </mxCell>
        <mxCell id="SL25e_AclgKspItbxeiN-12" value="khá" style="shape=parallelogram;perimeter=parallelogramPerimeter;whiteSpace=wrap;html=1;fixedSize=1;" vertex="1" parent="1">
          <mxGeometry x="330" y="505" width="120" height="60" as="geometry" />
        </mxCell>
        <mxCell id="SL25e_AclgKspItbxeiN-13" value="suất sắc" style="shape=parallelogram;perimeter=parallelogramPerimeter;whiteSpace=wrap;html=1;fixedSize=1;" vertex="1" parent="1">
          <mxGeometry x="330" y="760" width="120" height="60" as="geometry" />
        </mxCell>
        <mxCell id="SL25e_AclgKspItbxeiN-14" value="kết thúc" style="ellipse;whiteSpace=wrap;html=1;" vertex="1" parent="1">
          <mxGeometry x="120" y="870" width="120" height="80" as="geometry" />
        </mxCell>
        <mxCell id="SL25e_AclgKspItbxeiN-16" value="" style="endArrow=classic;html=1;rounded=0;" edge="1" parent="1" source="SL25e_AclgKspItbxeiN-10" target="SL25e_AclgKspItbxeiN-13">
          <mxGeometry width="50" height="50" relative="1" as="geometry">
            <mxPoint x="390" y="710" as="sourcePoint" />
            <mxPoint x="290" y="790" as="targetPoint" />
          </mxGeometry>
        </mxCell>
        <mxCell id="SL25e_AclgKspItbxeiN-38" value="đúng" style="edgeLabel;html=1;align=center;verticalAlign=middle;resizable=0;points=[];" connectable="0" vertex="1" parent="SL25e_AclgKspItbxeiN-16">
          <mxGeometry x="-0.2324" relative="1" as="geometry">
            <mxPoint as="offset" />
          </mxGeometry>
        </mxCell>
        <mxCell id="SL25e_AclgKspItbxeiN-19" value="" style="endArrow=classic;html=1;rounded=0;" edge="1" parent="1" source="SL25e_AclgKspItbxeiN-9" target="SL25e_AclgKspItbxeiN-10">
          <mxGeometry width="50" height="50" relative="1" as="geometry">
            <mxPoint x="390" y="710" as="sourcePoint" />
            <mxPoint x="440" y="660" as="targetPoint" />
          </mxGeometry>
        </mxCell>
        <mxCell id="SL25e_AclgKspItbxeiN-20" value="" style="endArrow=classic;html=1;rounded=0;" edge="1" parent="1" source="SL25e_AclgKspItbxeiN-1" target="SL25e_AclgKspItbxeiN-2">
          <mxGeometry width="50" height="50" relative="1" as="geometry">
            <mxPoint x="390" y="410" as="sourcePoint" />
            <mxPoint x="440" y="360" as="targetPoint" />
          </mxGeometry>
        </mxCell>
        <mxCell id="SL25e_AclgKspItbxeiN-21" value="" style="endArrow=classic;html=1;rounded=0;" edge="1" parent="1" source="SL25e_AclgKspItbxeiN-2" target="SL25e_AclgKspItbxeiN-3">
          <mxGeometry width="50" height="50" relative="1" as="geometry">
            <mxPoint x="390" y="410" as="sourcePoint" />
            <mxPoint x="440" y="360" as="targetPoint" />
          </mxGeometry>
        </mxCell>
        <mxCell id="SL25e_AclgKspItbxeiN-22" value="" style="endArrow=classic;html=1;rounded=0;" edge="1" parent="1" source="SL25e_AclgKspItbxeiN-5" target="SL25e_AclgKspItbxeiN-8">
          <mxGeometry width="50" height="50" relative="1" as="geometry">
            <mxPoint x="390" y="410" as="sourcePoint" />
            <mxPoint x="440" y="360" as="targetPoint" />
          </mxGeometry>
        </mxCell>
        <mxCell id="SL25e_AclgKspItbxeiN-23" value="" style="endArrow=classic;html=1;rounded=0;" edge="1" parent="1" source="SL25e_AclgKspItbxeiN-3" target="SL25e_AclgKspItbxeiN-5">
          <mxGeometry width="50" height="50" relative="1" as="geometry">
            <mxPoint x="390" y="410" as="sourcePoint" />
            <mxPoint x="440" y="360" as="targetPoint" />
          </mxGeometry>
        </mxCell>
        <mxCell id="SL25e_AclgKspItbxeiN-24" value="" style="endArrow=classic;html=1;rounded=0;" edge="1" parent="1" source="SL25e_AclgKspItbxeiN-8" target="SL25e_AclgKspItbxeiN-9">
          <mxGeometry width="50" height="50" relative="1" as="geometry">
            <mxPoint x="390" y="610" as="sourcePoint" />
            <mxPoint x="440" y="560" as="targetPoint" />
          </mxGeometry>
        </mxCell>
        <mxCell id="SL25e_AclgKspItbxeiN-25" value="" style="endArrow=classic;html=1;rounded=0;" edge="1" parent="1" source="SL25e_AclgKspItbxeiN-3" target="SL25e_AclgKspItbxeiN-4">
          <mxGeometry width="50" height="50" relative="1" as="geometry">
            <mxPoint x="390" y="510" as="sourcePoint" />
            <mxPoint x="440" y="460" as="targetPoint" />
          </mxGeometry>
        </mxCell>
        <mxCell id="SL25e_AclgKspItbxeiN-34" value="đúng" style="edgeLabel;html=1;align=center;verticalAlign=middle;resizable=0;points=[];" connectable="0" vertex="1" parent="SL25e_AclgKspItbxeiN-25">
          <mxGeometry x="-0.0526" y="-3" relative="1" as="geometry">
            <mxPoint as="offset" />
          </mxGeometry>
        </mxCell>
        <mxCell id="SL25e_AclgKspItbxeiN-26" value="" style="endArrow=classic;html=1;rounded=0;" edge="1" parent="1" source="SL25e_AclgKspItbxeiN-5" target="SL25e_AclgKspItbxeiN-6">
          <mxGeometry width="50" height="50" relative="1" as="geometry">
            <mxPoint x="390" y="510" as="sourcePoint" />
            <mxPoint x="440" y="460" as="targetPoint" />
          </mxGeometry>
        </mxCell>
        <mxCell id="SL25e_AclgKspItbxeiN-35" value="đúng" style="edgeLabel;html=1;align=center;verticalAlign=middle;resizable=0;points=[];" connectable="0" vertex="1" parent="SL25e_AclgKspItbxeiN-26">
          <mxGeometry x="-0.2" y="-2" relative="1" as="geometry">
            <mxPoint as="offset" />
          </mxGeometry>
        </mxCell>
        <mxCell id="SL25e_AclgKspItbxeiN-27" value="" style="endArrow=classic;html=1;rounded=0;" edge="1" parent="1" source="SL25e_AclgKspItbxeiN-8" target="SL25e_AclgKspItbxeiN-12">
          <mxGeometry width="50" height="50" relative="1" as="geometry">
            <mxPoint x="390" y="510" as="sourcePoint" />
            <mxPoint x="440" y="460" as="targetPoint" />
          </mxGeometry>
        </mxCell>
        <mxCell id="SL25e_AclgKspItbxeiN-36" value="đúng" style="edgeLabel;html=1;align=center;verticalAlign=middle;resizable=0;points=[];" connectable="0" vertex="1" parent="SL25e_AclgKspItbxeiN-27">
          <mxGeometry x="-0.1892" y="-1" relative="1" as="geometry">
            <mxPoint x="1" as="offset" />
          </mxGeometry>
        </mxCell>
        <mxCell id="SL25e_AclgKspItbxeiN-28" value="" style="endArrow=classic;html=1;rounded=0;" edge="1" parent="1" source="SL25e_AclgKspItbxeiN-2" target="SL25e_AclgKspItbxeiN-14">
          <mxGeometry width="50" height="50" relative="1" as="geometry">
            <mxPoint x="390" y="410" as="sourcePoint" />
            <mxPoint x="440" y="360" as="targetPoint" />
            <Array as="points">
              <mxPoint x="600" y="190" />
              <mxPoint x="600" y="720" />
              <mxPoint x="600" y="910" />
            </Array>
          </mxGeometry>
        </mxCell>
        <mxCell id="SL25e_AclgKspItbxeiN-29" value="" style="endArrow=classic;html=1;rounded=0;" edge="1" parent="1" source="SL25e_AclgKspItbxeiN-4">
          <mxGeometry width="50" height="50" relative="1" as="geometry">
            <mxPoint x="390" y="610" as="sourcePoint" />
            <mxPoint x="600" y="300" as="targetPoint" />
          </mxGeometry>
        </mxCell>
        <mxCell id="SL25e_AclgKspItbxeiN-30" value="" style="endArrow=classic;html=1;rounded=0;" edge="1" parent="1" source="SL25e_AclgKspItbxeiN-6">
          <mxGeometry width="50" height="50" relative="1" as="geometry">
            <mxPoint x="390" y="610" as="sourcePoint" />
            <mxPoint x="600" y="420" as="targetPoint" />
          </mxGeometry>
        </mxCell>
        <mxCell id="SL25e_AclgKspItbxeiN-31" value="" style="endArrow=classic;html=1;rounded=0;" edge="1" parent="1" source="SL25e_AclgKspItbxeiN-12">
          <mxGeometry width="50" height="50" relative="1" as="geometry">
            <mxPoint x="390" y="610" as="sourcePoint" />
            <mxPoint x="600" y="535" as="targetPoint" />
          </mxGeometry>
        </mxCell>
        <mxCell id="SL25e_AclgKspItbxeiN-32" value="" style="endArrow=classic;html=1;rounded=0;" edge="1" parent="1" source="SL25e_AclgKspItbxeiN-11">
          <mxGeometry width="50" height="50" relative="1" as="geometry">
            <mxPoint x="390" y="610" as="sourcePoint" />
            <mxPoint x="600" y="670" as="targetPoint" />
          </mxGeometry>
        </mxCell>
        <mxCell id="SL25e_AclgKspItbxeiN-33" value="" style="endArrow=classic;html=1;rounded=0;" edge="1" parent="1" source="SL25e_AclgKspItbxeiN-13">
          <mxGeometry width="50" height="50" relative="1" as="geometry">
            <mxPoint x="390" y="710" as="sourcePoint" />
            <mxPoint x="600" y="790" as="targetPoint" />
          </mxGeometry>
        </mxCell>
      </root>
    </mxGraphModel>
  </diagram>
  <diagram id="pg54onlj-FVPc4bpxFgL" name="Trang-6">
    <mxGraphModel grid="0" page="1" gridSize="10" guides="1" tooltips="1" connect="1" arrows="1" fold="1" pageScale="1" pageWidth="827" pageHeight="1169" math="0" shadow="0">
      <root>
        <mxCell id="0" />
        <mxCell id="1" parent="0" />
        <mxCell id="oW9FpFHnPmpQe4fQFio9-1" value="Start" style="ellipse;whiteSpace=wrap;html=1;" vertex="1" parent="1">
          <mxGeometry x="290" y="70" width="120" height="80" as="geometry" />
        </mxCell>
        <mxCell id="oW9FpFHnPmpQe4fQFio9-2" value="nhập a,b" style="shape=parallelogram;perimeter=parallelogramPerimeter;whiteSpace=wrap;html=1;fixedSize=1;" vertex="1" parent="1">
          <mxGeometry x="290" y="180" width="120" height="60" as="geometry" />
        </mxCell>
        <mxCell id="oW9FpFHnPmpQe4fQFio9-4" value="a==0" style="rhombus;whiteSpace=wrap;html=1;" vertex="1" parent="1">
          <mxGeometry x="310" y="270" width="80" height="80" as="geometry" />
        </mxCell>
        <mxCell id="oW9FpFHnPmpQe4fQFio9-5" value="x = -b/a" style="rounded=0;whiteSpace=wrap;html=1;" vertex="1" parent="1">
          <mxGeometry x="120" y="280" width="120" height="60" as="geometry" />
        </mxCell>
        <mxCell id="oW9FpFHnPmpQe4fQFio9-6" value="vô số nghiệm" style="shape=parallelogram;perimeter=parallelogramPerimeter;whiteSpace=wrap;html=1;fixedSize=1;" vertex="1" parent="1">
          <mxGeometry x="610" y="400" width="120" height="60" as="geometry" />
        </mxCell>
        <mxCell id="oW9FpFHnPmpQe4fQFio9-7" value="vô nghiệm" style="shape=parallelogram;perimeter=parallelogramPerimeter;whiteSpace=wrap;html=1;fixedSize=1;" vertex="1" parent="1">
          <mxGeometry x="400" y="400" width="120" height="60" as="geometry" />
        </mxCell>
        <mxCell id="oW9FpFHnPmpQe4fQFio9-8" value="phương trình&amp;nbsp;&lt;div&gt;có x&lt;/div&gt;" style="shape=parallelogram;perimeter=parallelogramPerimeter;whiteSpace=wrap;html=1;fixedSize=1;" vertex="1" parent="1">
          <mxGeometry x="120" y="390" width="120" height="60" as="geometry" />
        </mxCell>
        <mxCell id="oW9FpFHnPmpQe4fQFio9-9" value="b==0" style="rhombus;whiteSpace=wrap;html=1;" vertex="1" parent="1">
          <mxGeometry x="480" y="270" width="80" height="80" as="geometry" />
        </mxCell>
        <mxCell id="oW9FpFHnPmpQe4fQFio9-10" value="end" style="ellipse;whiteSpace=wrap;html=1;" vertex="1" parent="1">
          <mxGeometry x="290" y="560" width="120" height="75" as="geometry" />
        </mxCell>
        <mxCell id="oW9FpFHnPmpQe4fQFio9-11" value="" style="endArrow=classic;html=1;rounded=0;" edge="1" parent="1" source="oW9FpFHnPmpQe4fQFio9-1" target="oW9FpFHnPmpQe4fQFio9-2">
          <mxGeometry width="50" height="50" relative="1" as="geometry">
            <mxPoint x="390" y="410" as="sourcePoint" />
            <mxPoint x="440" y="360" as="targetPoint" />
          </mxGeometry>
        </mxCell>
        <mxCell id="oW9FpFHnPmpQe4fQFio9-12" value="" style="endArrow=classic;html=1;rounded=0;" edge="1" parent="1" source="oW9FpFHnPmpQe4fQFio9-2" target="oW9FpFHnPmpQe4fQFio9-4">
          <mxGeometry width="50" height="50" relative="1" as="geometry">
            <mxPoint x="390" y="410" as="sourcePoint" />
            <mxPoint x="440" y="360" as="targetPoint" />
          </mxGeometry>
        </mxCell>
        <mxCell id="oW9FpFHnPmpQe4fQFio9-20" value="" style="endArrow=classic;html=1;rounded=0;" edge="1" parent="1" source="oW9FpFHnPmpQe4fQFio9-4" target="oW9FpFHnPmpQe4fQFio9-5">
          <mxGeometry width="50" height="50" relative="1" as="geometry">
            <mxPoint x="390" y="410" as="sourcePoint" />
            <mxPoint x="440" y="360" as="targetPoint" />
          </mxGeometry>
        </mxCell>
        <mxCell id="2MGC5ort3vFt1J1bOKLd-1" value="sai" style="edgeLabel;html=1;align=center;verticalAlign=middle;resizable=0;points=[];" connectable="0" vertex="1" parent="oW9FpFHnPmpQe4fQFio9-20">
          <mxGeometry x="-0.0571" y="3" relative="1" as="geometry">
            <mxPoint as="offset" />
          </mxGeometry>
        </mxCell>
        <mxCell id="oW9FpFHnPmpQe4fQFio9-21" value="" style="endArrow=classic;html=1;rounded=0;" edge="1" parent="1" source="oW9FpFHnPmpQe4fQFio9-4" target="oW9FpFHnPmpQe4fQFio9-9">
          <mxGeometry width="50" height="50" relative="1" as="geometry">
            <mxPoint x="390" y="410" as="sourcePoint" />
            <mxPoint x="440" y="360" as="targetPoint" />
          </mxGeometry>
        </mxCell>
        <mxCell id="2MGC5ort3vFt1J1bOKLd-2" value="đúng" style="edgeLabel;html=1;align=center;verticalAlign=middle;resizable=0;points=[];" connectable="0" vertex="1" parent="oW9FpFHnPmpQe4fQFio9-21">
          <mxGeometry x="-0.2444" y="-2" relative="1" as="geometry">
            <mxPoint as="offset" />
          </mxGeometry>
        </mxCell>
        <mxCell id="oW9FpFHnPmpQe4fQFio9-22" value="" style="endArrow=classic;html=1;rounded=0;" edge="1" parent="1" source="oW9FpFHnPmpQe4fQFio9-5" target="oW9FpFHnPmpQe4fQFio9-8">
          <mxGeometry width="50" height="50" relative="1" as="geometry">
            <mxPoint x="390" y="410" as="sourcePoint" />
            <mxPoint x="440" y="360" as="targetPoint" />
          </mxGeometry>
        </mxCell>
        <mxCell id="oW9FpFHnPmpQe4fQFio9-23" value="" style="endArrow=classic;html=1;rounded=0;entryX=0.5;entryY=0;entryDx=0;entryDy=0;exitX=0.5;exitY=1;exitDx=0;exitDy=0;" edge="1" parent="1" source="oW9FpFHnPmpQe4fQFio9-9" target="oW9FpFHnPmpQe4fQFio9-7">
          <mxGeometry width="50" height="50" relative="1" as="geometry">
            <mxPoint x="390" y="410" as="sourcePoint" />
            <mxPoint x="480" y="380" as="targetPoint" />
            <Array as="points">
              <mxPoint x="460" y="350" />
              <mxPoint x="460" y="380" />
            </Array>
          </mxGeometry>
        </mxCell>
        <mxCell id="2MGC5ort3vFt1J1bOKLd-3" value="sai" style="edgeLabel;html=1;align=center;verticalAlign=middle;resizable=0;points=[];" connectable="0" vertex="1" parent="oW9FpFHnPmpQe4fQFio9-23">
          <mxGeometry x="-0.4545" relative="1" as="geometry">
            <mxPoint as="offset" />
          </mxGeometry>
        </mxCell>
        <mxCell id="oW9FpFHnPmpQe4fQFio9-24" value="" style="endArrow=classic;html=1;rounded=0;exitX=0.5;exitY=1;exitDx=0;exitDy=0;" edge="1" parent="1" source="oW9FpFHnPmpQe4fQFio9-9" target="oW9FpFHnPmpQe4fQFio9-6">
          <mxGeometry width="50" height="50" relative="1" as="geometry">
            <mxPoint x="520" y="320" as="sourcePoint" />
            <mxPoint x="570" y="280" as="targetPoint" />
            <Array as="points">
              <mxPoint x="670" y="350" />
            </Array>
          </mxGeometry>
        </mxCell>
        <mxCell id="2MGC5ort3vFt1J1bOKLd-4" value="đúng" style="edgeLabel;html=1;align=center;verticalAlign=middle;resizable=0;points=[];" connectable="0" vertex="1" parent="oW9FpFHnPmpQe4fQFio9-24">
          <mxGeometry x="-0.19" y="-1" relative="1" as="geometry">
            <mxPoint as="offset" />
          </mxGeometry>
        </mxCell>
        <mxCell id="oW9FpFHnPmpQe4fQFio9-36" value="" style="endArrow=none;html=1;rounded=0;" edge="1" parent="1" target="oW9FpFHnPmpQe4fQFio9-7">
          <mxGeometry width="50" height="50" relative="1" as="geometry">
            <mxPoint x="460" y="520" as="sourcePoint" />
            <mxPoint x="440" y="360" as="targetPoint" />
          </mxGeometry>
        </mxCell>
        <mxCell id="oW9FpFHnPmpQe4fQFio9-37" value="" style="endArrow=none;html=1;rounded=0;" edge="1" parent="1" source="oW9FpFHnPmpQe4fQFio9-8">
          <mxGeometry width="50" height="50" relative="1" as="geometry">
            <mxPoint x="390" y="410" as="sourcePoint" />
            <mxPoint x="180" y="520" as="targetPoint" />
          </mxGeometry>
        </mxCell>
        <mxCell id="oW9FpFHnPmpQe4fQFio9-38" value="" style="endArrow=none;html=1;rounded=0;" edge="1" parent="1">
          <mxGeometry width="50" height="50" relative="1" as="geometry">
            <mxPoint x="180" y="520" as="sourcePoint" />
            <mxPoint x="460" y="520" as="targetPoint" />
            <Array as="points">
              <mxPoint x="320" y="520" />
            </Array>
          </mxGeometry>
        </mxCell>
        <mxCell id="oW9FpFHnPmpQe4fQFio9-39" value="" style="endArrow=none;html=1;rounded=0;" edge="1" parent="1">
          <mxGeometry width="50" height="50" relative="1" as="geometry">
            <mxPoint x="460" y="520" as="sourcePoint" />
            <mxPoint x="670" y="520" as="targetPoint" />
          </mxGeometry>
        </mxCell>
        <mxCell id="oW9FpFHnPmpQe4fQFio9-40" value="" style="endArrow=none;html=1;rounded=0;" edge="1" parent="1" source="oW9FpFHnPmpQe4fQFio9-6">
          <mxGeometry width="50" height="50" relative="1" as="geometry">
            <mxPoint x="390" y="410" as="sourcePoint" />
            <mxPoint x="670" y="520" as="targetPoint" />
          </mxGeometry>
        </mxCell>
        <mxCell id="oW9FpFHnPmpQe4fQFio9-41" value="" style="endArrow=classic;html=1;rounded=0;" edge="1" parent="1" target="oW9FpFHnPmpQe4fQFio9-10">
          <mxGeometry width="50" height="50" relative="1" as="geometry">
            <mxPoint x="350" y="520" as="sourcePoint" />
            <mxPoint x="440" y="360" as="targetPoint" />
          </mxGeometry>
        </mxCell>
      </root>
    </mxGraphModel>
  </diagram>
</mxfile>
